<svg width="273" height="273" viewBox="0 0 273 273" fill="none" xmlns="http://www.w3.org/2000/svg">
<path d="M221.812 212.695C253.005 190.78 273 157.188 273 119.438C273 53.4803 211.895 0 136.5 0C61.1051 0 0 53.4803 0 119.438C0 157.135 19.9951 190.78 51.1875 212.695C51.1875 212.908 51.1875 213.068 51.1875 213.281V247.406C51.1875 261.536 62.6514 273 76.7812 273H102.375V247.406C102.375 242.714 106.214 238.875 110.906 238.875C115.598 238.875 119.438 242.714 119.438 247.406V273H153.562V247.406C153.562 242.714 157.402 238.875 162.094 238.875C166.786 238.875 170.625 242.714 170.625 247.406V273H196.219C210.349 273 221.812 261.536 221.812 247.406V213.281C221.812 213.068 221.812 212.908 221.812 212.695ZM51.1875 136.5C51.1875 127.449 54.7828 118.77 61.1825 112.37C67.5822 105.97 76.262 102.375 85.3125 102.375C94.363 102.375 103.043 105.97 109.443 112.37C115.842 118.77 119.438 127.449 119.438 136.5C119.438 145.551 115.842 154.23 109.443 160.63C103.043 167.03 94.363 170.625 85.3125 170.625C76.262 170.625 67.5822 167.03 61.1825 160.63C54.7828 154.23 51.1875 145.551 51.1875 136.5ZM187.688 102.375C196.738 102.375 205.418 105.97 211.818 112.37C218.217 118.77 221.812 127.449 221.812 136.5C221.812 145.551 218.217 154.23 211.818 160.63C205.418 167.03 196.738 170.625 187.688 170.625C178.637 170.625 169.957 167.03 163.557 160.63C157.158 154.23 153.562 145.551 153.562 136.5C153.562 127.449 157.158 118.77 163.557 112.37C169.957 105.97 178.637 102.375 187.688 102.375Z" fill="#EEEEEE"/>
</svg>
